<svg xmlns="http://www.w3.org/2000/svg" width="24" height="24" viewBox="0 0 24 24" fill="#ededed" class="injected-svg text-gray3 fill-current" data-src="https://secure.meetupstatic.com/next/images/design-system-icons/social-instagram.svg" xmlns:xlink="http://www.w3.org/1999/xlink" style="width:30px;height:30px"><title>instagram</title>
<path fill-rule="evenodd" clip-rule="evenodd" d="M19.3249 15.6363C19.2849 16.5139 19.1381 16.9907 19.0163 17.3074C18.8526 17.7273 18.6573 18.0275 18.3406 18.3424C18.0275 18.6573 17.7273 18.8521 17.3074 19.014C16.9907 19.1377 16.5121 19.2849 15.6346 19.3267C14.6858 19.3685 14.4047 19.3774 11.9989 19.3774C9.59528 19.3774 9.31193 19.3685 8.3632 19.3267C7.48566 19.2849 7.0093 19.1377 6.69259 19.014C6.2705 18.8521 5.97251 18.6573 5.6576 18.3424C5.34046 18.0275 5.14521 17.7273 4.98375 17.3074C4.86186 16.9907 4.71288 16.5139 4.67505 15.6363C4.62881 14.6876 4.62034 14.4021 4.62034 12.0011C4.62034 9.59528 4.62881 9.31193 4.67505 8.3632C4.71288 7.48566 4.86186 7.0093 4.98375 6.68992C5.14521 6.2705 5.34046 5.97204 5.6576 5.65713C5.97251 5.34269 6.2705 5.14741 6.69259 4.98375C7.0093 4.85966 7.48566 4.71465 8.3632 4.67285C9.31193 4.63102 9.59528 4.62034 11.9989 4.62034C14.4047 4.62034 14.6858 4.63102 15.6346 4.67285C16.5121 4.71465 16.9907 4.85966 17.3074 4.98375C17.7273 5.14741 18.0275 5.34269 18.3406 5.65713C18.6573 5.97204 18.8526 6.2705 19.0163 6.68992C19.1381 7.0093 19.2849 7.48566 19.3249 8.3632C19.369 9.31193 19.3796 9.59528 19.3796 12.0011C19.3796 14.4021 19.369 14.6876 19.3249 15.6363ZM20.9453 8.28938C20.9013 7.33041 20.75 6.67525 20.5254 6.10461C20.2968 5.51259 19.9903 5.01087 19.4886 4.50916C18.9891 4.00967 18.4874 3.70321 17.8954 3.47193C17.3225 3.24953 16.6696 3.09651 15.7102 3.05471C14.7508 3.00844 14.4443 3 11.9989 3C9.55568 3 9.24701 3.00844 8.28761 3.05471C7.33041 3.09651 6.67791 3.24953 6.10237 3.47193C5.51259 3.70321 5.01087 4.00967 4.51139 4.50916C4.00967 5.01087 3.7032 5.51259 3.47236 6.10461C3.24996 6.67525 3.09874 7.33041 3.05247 8.28938C3.01067 9.24878 3 9.55568 3 12.0011C3 14.4443 3.01067 14.7508 3.05247 15.7102C3.09874 16.6674 3.24996 17.3221 3.47236 17.8954C3.7032 18.4852 4.00967 18.9891 4.51139 19.4886C5.01087 19.9881 5.51259 20.2968 6.10237 20.5276C6.67791 20.75 7.33041 20.9013 8.28761 20.9453C9.24701 20.9893 9.55568 21 11.9989 21C14.4443 21 14.7508 20.9893 15.7102 20.9453C16.6696 20.9013 17.3225 20.75 17.8954 20.5276C18.4874 20.2968 18.9891 19.9881 19.4886 19.4886C19.9903 18.9891 20.2968 18.4852 20.5254 17.8954C20.75 17.3221 20.9013 16.6674 20.9453 15.7102C20.9893 14.7508 21 14.4443 21 12.0011C21 9.55568 20.9893 9.24878 20.9453 8.28938ZM17.8847 7.19606C17.8847 6.59784 17.3999 6.1148 16.8039 6.1148C16.2079 6.1148 15.7226 6.59784 15.7226 7.19606C15.7226 7.79208 16.2079 8.27512 16.8039 8.27512C17.3999 8.27512 17.8847 7.79208 17.8847 7.19606ZM8.99926 12.0011C8.99926 13.657 10.3429 14.9985 11.9989 14.9985C13.6553 14.9985 15.0007 13.657 15.0007 12.0011C15.0007 10.3425 13.6553 8.99928 11.9989 8.99928C10.3429 8.99928 8.99926 10.3425 8.99926 12.0011ZM7.37892 12.0011C7.37892 9.44849 9.44626 7.37671 11.9989 7.37671C14.5515 7.37671 16.6211 9.44849 16.6211 12.0011C16.6211 14.5515 14.5515 16.6211 11.9989 16.6211C9.44626 16.6211 7.37892 14.5515 7.37892 12.0011Z"></path>
</svg>