<svg xmlns="http://www.w3.org/2000/svg" width="24" height="24" viewBox="0 0 24 24" fill="#ededed" class="injected-svg text-gray3 fill-current" data-src="https://secure.meetupstatic.com/next/images/design-system-icons/social-twitter.svg" xmlns:xlink="http://www.w3.org/1999/xlink" style="width:30px;height:30px"><title>twitter</title>
<path d="M22 5.92406C21.2641 6.25041 20.4733 6.47098 19.6433 6.57017C20.4905 6.06233 21.1411 5.2582 21.4475 4.30008C20.6547 4.77026 19.7765 5.11175 18.8419 5.2958C18.0933 4.49834 17.027 4 15.8468 4C13.5807 4 11.7434 5.83716 11.7434 8.10315C11.7434 8.42474 11.7798 8.73792 11.8497 9.03822C8.43952 8.86711 5.41607 7.23355 3.3923 4.75109C3.0391 5.35711 2.83675 6.06196 2.83675 6.81393C2.83675 8.23746 3.56121 9.4934 4.6622 10.2292C3.98954 10.2079 3.35689 10.0233 2.80361 9.71601C2.80332 9.73313 2.80332 9.75032 2.80332 9.76759C2.80332 11.7557 4.21771 13.4141 6.09481 13.791C5.75047 13.8848 5.38798 13.9349 5.01372 13.9349C4.74933 13.9349 4.49226 13.9092 4.24178 13.8613C4.76389 15.4915 6.27923 16.6778 8.07476 16.7109C6.67047 17.8114 4.9012 18.4674 2.97882 18.4674C2.64765 18.4674 2.32101 18.448 2 18.4101C3.81587 19.5743 5.97271 20.2536 8.28992 20.2536C15.8372 20.2536 19.9644 14.0012 19.9644 8.57895C19.9644 8.40104 19.9604 8.22408 19.9525 8.04814C20.7542 7.46962 21.4499 6.74692 22 5.92406Z"></path>
</svg>